<?xml version="1.0" encoding="UTF-8"?>
<svg width="1200pt" height="1200pt" version="1.1" viewBox="0 0 1200 1200" xmlns="http://www.w3.org/2000/svg">
 <path d="m612.52 425.02v24.984c0 20.625-16.875 37.5-37.5 37.5h-249.98c-20.625 0-37.5-16.875-37.5-37.5v-24.984c0-20.625 16.875-37.5 37.5-37.5h249.98c20.625 0 37.5 16.875 37.5 37.5zm-47.906-334.4c-28.641-33.75-70.359-53.109-114.61-53.109s-86.016 19.359-114.61 53.109c-28.5 33.75-40.734 78.141-33.516 121.74l24.984 150.14h246.24l24.984-150.14c7.2656-43.641-5.0156-87.984-33.516-121.74zm-401.63 596.9c-0.23438 2.25-0.51562 4.5-0.51562 6.75v43.266c0 27.609 22.359 50.016 50.016 50.016h474.98c27.609 0 50.016-22.359 50.016-50.016v-43.266c0-2.25-0.23438-4.5-0.51562-6.75zm174.52-175.03v24.984h225v-24.984zm388.5 150c-2.7656-3.375-5.8594-6.375-9.375-8.8594l-127.5-91.125h-278.02l-127.64 91.125c-3.6094 2.4844-6.75 5.625-9.375 8.8594h552zm286.5 262.5h-174.98c-20.625 0-37.5 16.875-37.5 37.5v75c0 20.625 16.875 37.5 37.5 37.5h174.98c13.734 0 24.984-11.25 24.984-24.984v-99.984c0-13.734-11.25-24.984-24.984-24.984zm-237.52 112.5v-75c0-4.2656 0.51562-8.4844 1.2656-12.516h-53.859c-2.0156 21.75-5.25 42.375-9.75 61.641-3.1406 13.641-8.0156 26.484-14.109 38.391h77.625c-0.89062-3.9844-1.2656-8.25-1.2656-12.516zm-574.22-112.5c1.5 28.734 5.1094 55.875 10.875 81 14.484 62.766 69.609 106.5 134.11 106.5h208.5c64.5 0 119.62-43.734 134.11-106.5 5.7656-24.984 9.375-52.266 10.875-81zm499.22-99.984h-499.97c-20.625 0-37.5 16.875-37.5 37.5s16.875 37.5 37.5 37.5h500.02c20.625 0 37.5-16.875 37.5-37.5s-16.875-37.5-37.5-37.5zm-354.24 312.52c-3.9844 0-8.0156-0.14062-11.859-0.51562l1.6406 6.5156c2.7656 11.25 12.75 18.984 24.234 18.984h30.516c11.484 0 21.516-7.7344 24.234-18.984l1.5-6zm208.5 0h-70.266l1.5 6c2.7656 11.25 12.75 18.984 24.234 18.984h30.516c11.484 0 21.516-7.7344 24.234-18.984l1.6406-6.5156c-3.8906 0.375-7.875 0.51562-11.859 0.51562z"/>
</svg>
