<?xml version="1.0" encoding="UTF-8"?>
<svg width="1200pt" height="1200pt" version="1.1" viewBox="0 0 1200 1200" xmlns="http://www.w3.org/2000/svg">
 <path d="m288 984h624c13.199 0 24-10.801 24-24v-81.602h180c13.199 0 24-10.801 24-24 0-13.199-10.801-24-24-24h-298.8l319.2-580.8c3.6016-7.1992 3.6016-16.801 0-24-4.8008-7.1992-12-12-20.398-12l-1032 0.003906c-8.3984 0-16.801 4.8008-20.398 12-4.8008 7.1992-4.8008 16.801 0 24l319.2 580.8-94.801-0.003906h-204c-13.199 0-24 10.801-24 24 0 13.199 10.801 24 24 24h180v81.602c0 13.199 10.801 24 24 24zm787.2-720-312 567.6h-326.4l-312-567.6zm-652.8 615.6h465.6v56.398h-576v-57.602h110.4z"/>
</svg>
