<?xml version="1.0" encoding="UTF-8"?>
<svg width="1200pt" height="1200pt" version="1.1" viewBox="0 0 1200 1200" xmlns="http://www.w3.org/2000/svg">
 <path d="m489.47 1070.5-0.14062-0.1875c-61.875-81.047-296.86-389.06-365.16-478.69-9.1875-12-12.375-27.516-8.7188-42.141s13.781-26.859 27.516-33.094c0-0.046875 0.046875-0.046875 0.046875-0.046875 304.64-138.42 609.28-138.14 913.92-0.09375 0.046875 0.046875 0.046875 0.046875 0.09375 0.046875 13.734 6.2812 23.906 18.516 27.562 33.188s0.46875 30.188-8.7188 42.188l-365.21 478.64c-14.109 18.516-36.094 29.391-59.391 29.391h-102.56c-23.203 0-45.094-10.828-59.25-29.203zm66.75-107.06 31.5-20.016c11.625-7.3594 15.094-22.828 7.6875-34.5-7.3594-11.625-22.875-15.094-34.5-7.6875l-31.5 19.969c-11.672 7.4062-15.094 22.875-7.6875 34.5 7.3594 11.672 22.828 15.141 34.5 7.7344zm-61.219-85.031 31.547-19.969c11.625-7.4062 15.094-22.875 7.6875-34.547-7.4062-11.625-22.875-15.094-34.5-7.6875l-31.547 19.969c-11.625 7.4062-15.094 22.875-7.6875 34.5 7.4062 11.672 22.828 15.141 34.5 7.7344zm-61.172-85.031 31.5-20.016c11.625-7.3594 15.094-22.828 7.6875-34.5-7.3594-11.625-22.828-15.094-34.5-7.6875l-31.5 20.016c-11.625 7.3594-15.094 22.828-7.7344 34.5 7.4062 11.625 22.875 15.094 34.547 7.6875zm-61.219-85.031 31.5-20.016c11.672-7.4062 15.094-22.828 7.7344-34.5-7.4062-11.625-22.875-15.094-34.5-7.6875l-31.5 20.016c-11.672 7.3594-15.141 22.828-7.7344 34.5 7.4062 11.625 22.875 15.094 34.5 7.6875zm-57.375-79.781 31.5-20.016c11.625-7.3594 15.094-22.828 7.6875-34.5-7.3594-11.625-22.828-15.094-34.5-7.6875l-31.5 20.016c-11.625 7.3594-15.094 22.828-7.6875 34.5 7.3594 11.625 22.828 15.094 34.5 7.6875zm-79.781-203.06c243.05-84.188 486.1-84.047 729.1 0.046875l111.56-146.16c9.2344-12.141 12.422-27.75 8.7188-42.516-3.6562-14.719-13.875-27-27.656-33.328-0.046875 0-0.09375-0.046875-0.09375-0.046875-304.74-138.1-609.47-138.32-914.16 0.046875 0 0.046875-0.046875 0.046875-0.09375 0.09375-13.781 6.2812-23.953 18.562-27.609 33.281-3.7031 14.719-0.51562 30.328 8.7188 42.375 25.969 34.078 73.922 96.984 111.52 146.21zm583.45-148.22c30.328 7.6406 60.703 16.875 91.031 27.656 13.031 4.5938 27.328-2.2031 31.922-15.188 4.6406-12.984-2.1562-27.328-15.141-31.922-31.875-11.344-63.75-21-95.625-29.016-13.359-3.375-26.953 4.7344-30.328 18.141s4.7812 27 18.141 30.328zm-340.45-19.078c81-11.297 162.05-11.297 243.1 0.046875 13.641 1.9219 26.297-7.6406 28.219-21.328 1.9219-13.641-7.6406-26.297-21.281-28.219-85.641-11.953-171.32-12-256.92-0.046875-13.688 1.9219-23.25 14.578-21.328 28.219 1.9219 13.688 14.578 23.203 28.219 21.328z" fill-rule="evenodd"/>
</svg>
