<?xml version="1.0" encoding="UTF-8"?>
<svg width="1200pt" height="1200pt" version="1.1" viewBox="0 0 1200 1200" xmlns="http://www.w3.org/2000/svg">
 <path d="m288 161.16 157.44 202.56c-2.4805 1.7031-4.5664 3.9102-6.1211 6.4805-1.832 3.043-2.7969 6.5273-2.7969 10.082 0 3.5508 0.96484 7.0352 2.7969 10.078l16.68 28.562c9.3711 16.438 15.328 34.602 17.52 53.398-6.3984-6.8398-15.293-10.797-24.656-10.977s-18.402 3.4336-25.059 10.023c-6.6562 6.5859-10.367 15.586-10.285 24.953 0.027344 4.1055 0.80078 8.1719 2.2812 12l-4.0781 5.2812h-0.003906c-2.6562 3.6641-3.7773 8.2227-3.1289 12.703 0.64844 4.4844 3.0195 8.5352 6.6094 11.297-2.5195 48-57.961 129.72-105.6 152.16h0.003906c-1.1523 0.59766-2.2031 1.3672-3.1211 2.2773l-0.96094-0.96094c-2.7344-2.6016-7.0508-2.5508-9.7227 0.12109-2.668 2.6719-2.7227 6.9844-0.11719 9.7227l3.3594 3.2383c-1.9766 4.4844-3.6602 9.0977-5.0391 13.801-0.59766 1.75-0.44531 3.668 0.41797 5.3008 0.86328 1.6367 2.3594 2.8438 4.1406 3.3398 0.67578 0.11328 1.3672 0.11328 2.043 0 3.0508 0.015626 5.7422-1.9922 6.5977-4.9219 0.83984-2.6406 1.8008-5.1602 2.6406-7.6797 0.91406 0.16797 1.8477 0.16797 2.7617 0 1.8438 0 3.6133-0.73438 4.918-2.0391 1.3359-1.2891 2.0898-3.0664 2.0898-4.9219 0-1.8555-0.75391-3.6289-2.0898-4.918l-1.1992-1.1992c28.078-16.051 52.16-38.246 70.441-64.922-16.848 42.211-39.156 82.031-66.363 118.44l-3.1211-3.1211h0.003906c-2.7383-2.6055-7.0508-2.5547-9.7227 0.11719s-2.7227 6.9883-0.11719 9.7227l3.4805 3.4805c-1.3203 0.5625-2.6836 1.0039-4.082 1.3203-4.3789 0.44141-8.4766 2.375-11.602 5.4766-3.1211 3.1055-5.0859 7.1836-5.5586 11.562-0.90625 3.707 1.3398 7.457 5.0391 8.3984h1.6797c3.2227-0.027344 6-2.2617 6.7227-5.3984 1.4414-5.6406 2.3984-5.8789 6.4805-6.7188 4.3984-0.57812 8.5508-2.3633 12-5.1602 0.96094 0.51562 2.0273 0.80469 3.1172 0.83984 1.8477 0 3.6172-0.73438 4.9219-2.0391 2.2617-2.332 2.6094-5.918 0.83984-8.6406 44.879-53.641 94.68-168 98.398-223.68 4.1875-0.80859 7.918-3.1641 10.441-6.6016l3.1211-4.0781c1.8555 0.38281 3.7422 0.58203 5.6367 0.59766 8.207-0.03125 16.129-3.0117 22.32-8.3984-1.9766 8.2305-4.7109 16.266-8.1602 24l-26.762 58.441 0.003907-0.003906c-3.168 6.7422-3.9453 14.363-2.1992 21.609 1.7461 7.2422 5.9062 13.672 11.797 18.23l-131.64 287.52c-15.469 33.688-12.703 72.938 7.3359 104.13 20.039 31.188 54.59 50.016 91.664 49.949h396c37.043 0.003906 71.547-18.84 91.574-50.004 20.027-31.168 22.824-70.383 7.4258-104.07l-131.16-287.16c2.8242-2.2578 5.2891-4.9297 7.3203-7.9219 6.1016-9.5703 6.9609-21.578 2.2773-31.918l-24-53.879v-0.003907c-6.5156-14.168-10.574-29.348-12-44.879h2.5195c5.7656 0 10.441-4.6758 10.441-10.441s-4.6758-10.438-10.441-10.438h-3c1.207-21.715 7.4961-42.844 18.363-61.68l19.199-33.238v-0.003906c1.7695-3.0625 2.6992-6.5391 2.6992-10.078s-0.92969-7.0156-2.6992-10.082c-2.6055-4.5859-6.918-7.9492-12-9.3594l127.08-221.28c1.5-2.5234 2.293-5.4023 2.293-8.3398 0-2.9336-0.79297-5.8164-2.293-8.3398-3.8008-5.8516-10.43-9.2344-17.398-8.8789h-545.4c-1.4922 0.074219-2.9766 0.27344-4.4375 0.60156l-32.52 4.8008v-0.003906c-7.4648 1.7969-13.75 6.8047-17.16 13.68-3.3047 6.6523-3.5234 14.418-0.60156 21.242 1.0391 2.3398 2.2031 4.6211 3.4805 6.8398zm157.32 212.52c2.457-4.2656 7.082-6.8086 12-6.6016h15.121c0.71875 13.199 12.961 27.121 26.039 41.52v0.003906c11.125 11.027 20.438 23.746 27.598 37.68 6.3594 15.359 12 28.199 17.039 39h-25.676c-6.8398-12.961-14.281-28.078-23.039-45.602h-0.003906c-10.879-19.059-24.414-36.473-40.199-51.719-3.6016-3.7188-6.9609-7.3203-10.199-11.039 0.28125-1.1406 0.72266-2.2305 1.3203-3.2422zm171.36-6.6016h20.16c-1.6328 4.7383-3.5156 9.3867-5.6406 13.922-15.84 33.602-12 72-6.7188 104.28h-14.16v-1.9219c-4.3164-22.609-3.2461-45.918 3.1211-68.039 6.1445-15.336 7.2773-32.223 3.2383-48.242zm92.879 118.2-15.84 0.003906c-12-26.879-26.039-50.16-36-50.641-1.918-0.14453-3.8008 0.55859-5.1602 1.918-5.6406 5.3984-5.8789 22.199-5.3984 48.719l-16.559 0.003906c-4.6797-31.559-9.1211-69.48 6-101.76 2.543-5.3203 4.707-10.812 6.4766-16.441h60c-6.4336 6.1875-11.609 13.562-15.238 21.723-14.281 31.199 3.7188 64.438 21.719 96.48zm-210.72 20.883c40.641 51.746 87.332 98.438 139.08 139.08h-22.922c-49.09-41.742-93.836-88.34-133.56-139.08zm-17.641-20.879v-1.6797l1.3203 1.6797zm25.32 20.879h15.48c24 41.281 41.039 55.68 77.641 55.68h8.8789c7.7148 0.18359 15.125-3.0156 20.281-8.7617 8.0391-9.8398 7.4414-26.039 4.8008-46.559h14.398c0.94922 16.152-0.67188 32.355-4.8008 48-5.6133 17.695-2.5469 37 8.2812 52.082 5.1836 10.09 14.445 17.477 25.441 20.277h0.71875c8.3984 0 17.039-8.0391 24-22.68 6.9648-14.473 11.043-30.164 12-46.199-1.0664-17.832-5.1211-35.355-12-51.84h19.078c1.4414 2.6406 2.8789 5.2812 4.1992 7.9219 19.082 37.918 3.2422 85.918-18.719 131.16h-58.918l-0.96094-0.83984c-52-40.277-98.941-86.691-139.8-138.24zm75.961-30.719v9.8398h-4.4414c-5.2969-11.371-8.7031-23.531-10.078-36-4.1133-12.762-11.375-24.277-21.121-33.48-5.2812-6.2383-14.16-16.559-12.84-18.961 0 0 0.83984-1.3203 6.6016-1.3203 2.5547-0.14062 5.1211-0.14062 7.6797 0 11.125 1.8633 21.215 7.6523 28.438 16.32 6.9219 9.8242 9.5625 22.035 7.3203 33.84-1.3555 9.8594-1.8789 19.812-1.5586 29.762zm24 30.719c0.4375 4.6602-0.65625 9.3398-3.1211 13.32-1.9805 2.1953-4.8438 3.3867-7.8008 3.2383-6.6289 0.73438-13.332-0.42969-19.324-3.3633-5.9922-2.9336-11.027-7.5078-14.516-13.195zm-14.398 22.68h3.8398c4.5898 0.007812 8.9609-1.957 12-5.3984 3.3398-5.1055 4.7852-11.223 4.0781-17.281h15.48c2.5195 18.961 3.3594 34.68-3.2383 42.719h-0.003907c-4.1602 4.4258-10.008 6.8672-16.078 6.7227-38.762 1.9219-55.801-9-79.32-49.441h25.082c3.5898 6.875 9.0078 12.629 15.652 16.629 6.6484 4.0039 14.27 6.0938 22.027 6.0508zm62.398-22.68h41.52c6.9883 16.324 11.051 33.75 12 51.48-1.0586 15.289-5.1367 30.215-12 43.918-6.1211 12-13.199 19.559-19.199 19.32-8.9414-2.9023-16.395-9.1914-20.762-17.52-9.7812-13.473-12.672-30.758-7.8008-46.68 4.7266-16.398 6.6758-33.477 5.7617-50.52zm3.9609-65.52c6.1211 0 18.48 20.398 29.281 44.641h-33.961c-0.36328-19.562-0.48047-40.441 4.1992-44.641zm-50.398-27.48h-0.003907c-6.7227 23.039-7.875 47.348-3.3594 70.918v1.1992l-16.68 0.003906v-9.8398c-0.33984-9.6211 0.10156-19.254 1.3203-28.801 2.8438-13.438-0.070312-27.453-8.0391-38.641-8.1484-9.9961-19.676-16.656-32.402-18.719-12-1.4414-18.121 0-20.281 3.9609-3.2383 6.1211 3.8398 14.281 13.559 25.68h0.003906c8.8711 8.4648 15.613 18.91 19.68 30.477 1.4453 10.98 4.1016 21.766 7.9219 32.16 0 1.3203 1.0781 2.2812 1.5586 3.3594l-22.199 0.003906c-5.3984-10.922-11.16-24-18.121-41.281-7.3359-14.605-17.027-27.902-28.68-39.359-12-13.559-24-26.52-24-37.559l132.48-0.003906c4.2344 15.398 3.0898 31.781-3.2422 46.441zm-145.8 2.2812-15.84-27.48 3.8398 4.1992h-0.003907c15.445 14.73 28.664 31.625 39.242 50.16 8.1602 16.32 15.238 30.48 21.719 42.961h-21.121l-10.078-12.84c-2.0195-20.07-8.2344-39.488-18.238-57zm17.398 97.559c37.957 47.883 80.344 92.078 126.6 132h-22.316c-36-32.641-65.762-63-93.961-93.961-4.7969-5.4531-10.914-9.582-17.762-12 3.1602-8.4336 5.4883-17.152 6.9609-26.039zm-40.441 106.68c-0.28516-4.1289 0.5-8.2617 2.2812-12l26.52-58.32c0.71875-1.5586 1.3203-3.2383 1.9219-4.9219v0.003906c6.0391 2.1914 11.387 5.9609 15.477 10.918 27 29.641 56.039 58.801 89.641 89.879h-21.602l-15.719-13.078c-10.801-8.7617-21.961-17.879-32.879-27.84-8.6445-9.3867-21.609-13.492-34.078-10.801-13.191 4.875-24.324 14.105-31.562 26.16zm4.0781 13.441h0.003906c-1.0312-1.6211-1.875-3.3516-2.5195-5.1602 6.9102-12.949 18.109-23.086 31.68-28.68 10.465-2.1211 21.277 1.4336 28.438 9.3594 11.16 10.199 22.32 19.32 33.121 28.199l10.199 8.3984h-78.719c-8.9961 0.066407-17.391-4.5156-22.199-12.117zm453.36 303.72c13.73 29.984 11.258 64.898-6.5625 92.648s-48.539 44.523-81.52 44.512h-396c-33.062 0.17578-63.934-16.531-81.867-44.309-17.938-27.781-20.457-62.789-6.6914-92.852l131.28-286.32c3.3008 1.0469 6.7344 1.6133 10.199 1.6797h290.52c3.4609-0.082031 6.8945-0.64453 10.199-1.6797zm-124.44-345.12 4.9219 10.801c-6.8398 11.039-12.961 20.281-16.922 25.68 1.9219-6.8398 5.3984-17.281 8.7617-26.879 0.96094-3.1211 2.1602-6.3594 3.2383-9.6016zm-4.1992-8.0391-4.8008 16.32c-10.68 31.441-12 36-9.6016 38.398l1.5586 1.4414h1.5586c3.6016 0 12.719-12.961 23.281-29.641h0.003906c2.7656 7.082 2.2852 15.023-1.3203 21.723l-5.1602 7.1992c-4.9258 4.4766-11.344 6.957-18 6.957h-27.121c13.352-25.305 24.051-51.93 31.922-79.438zm-13.559-29.762 1.3203 2.8789v0.003906c-7.8633 30.781-19.469 60.484-34.562 88.438h-8.3984c22.078-45.48 37.199-94.68 17.762-133.92-0.83984-1.6797-1.8008-3.3594-2.6406-5.1602h14.52v0.003906c1.4102 16.516 5.6328 32.664 12.48 47.762zm6.8398-133.92c-9.8242 17.168-16.07 36.152-18.359 55.801-8.1602-19.441-13.68-39.602-4.9219-56.879 9.7188-15.309 24.629-26.602 42-31.801zm18.719-46.32c1.1836 1.9102 1.8086 4.1133 1.8008 6.3594-25.32 9.3594-41.879 21.238-49.559 36-10.922 21.719-2.5195 46.078 7.9219 68.879h-24c-18.602-33-36-64.078-23.281-93.602l-0.003906 0.003906c4.4258-9.2617 10.816-17.453 18.723-24h57.359c4.5312 0.0625 8.7109 2.4688 11.039 6.3594zm-446.4-244.56c1.7969-2.2227 4.5938-3.3945 7.4375-3.1211h544.2c2.6641-0.29688 5.2891 0.78906 6.9609 2.8789 0.89062 1.4336 0.89062 3.2461 0 4.6797l-131.4 226.44h-295.92l-130.8-226.44c-0.96875-1.2734-1.1562-2.9844-0.47656-4.4375zm-37.68 9.6016v-0.003906c1.6719-3.582 4.8281-6.2539 8.6367-7.3203l16.801-2.5195c-0.37891 3.7266 0.46484 7.4766 2.4023 10.68l108 186.72-133.8-171.84c-0.83984-1.5586-1.6797-3.1211-2.3984-4.6797h-0.003906c-1.5664-3.543-1.4336-7.6094 0.36328-11.043z"/>
 <path d="m675.36 589.08c5.5781 0.19141 10.551-3.4883 12-8.8789 2.3242-7.8047 3.6953-15.863 4.082-24-0.88672-13.078-3.7578-25.945-8.5195-38.16-1.8008-5.0391-4.0781-10.078-8.0391-9.4805-3.9609 0.60156-4.6797 6.1211-4.9219 12 0.32422 14.293-1.7852 28.535-6.2422 42.121-1.8828 5.6055-1.8828 11.676 0 17.281 1.3242 5.3516 6.125 9.1133 11.641 9.1172zm-5.8789-24c4.6367-14.207 6.8672-29.094 6.5977-44.039v-2.8789l0.96094 2.6406c4.6914 11.473 7.4844 23.629 8.2812 36-0.42187 7.4453-1.7109 14.812-3.8398 21.961-0.99609 2.4375-3.3672 4.0312-6 4.0312-2.6328 0-5.0039-1.5938-6-4.0312-1.5352-4.5156-1.5352-9.4102 0-13.922z"/>
 <path d="m340.68 944.4c-11.172 24.453-9.1133 52.914 5.4609 75.504s39.656 36.195 66.539 36.098h396c26.883 0.097656 51.965-13.508 66.539-36.098s16.633-51.051 5.4609-75.504l-59.281-128.4h-421.92z"/>
</svg>
