<?xml version="1.0" encoding="UTF-8"?>
<svg width="1200pt" height="1200pt" version="1.1" viewBox="0 0 1200 1200" xmlns="http://www.w3.org/2000/svg">
 <path d="m928.45 638.48-73.266-77.484-33-35.016-14.25-15h-537.52l-39 41.25-79.266 83.766-2.0156 2.4844c-38.016 52.5-57.984 114.23-57.984 178.74v23.484c0 168.98 137.48 306.52 306.24 306.52h281.48c168.98 0 306.52-137.48 306.52-306.52v-23.484c0.09375-64.453-20.156-126.24-57.938-178.74zm8.0156 202.26c0 141.52-115.27 256.5-256.5 256.5h-281.48c-110.77 0-205.26-70.734-240.98-169.26-6-16.734-10.5-34.266-12.75-52.266-1.7344-11.484-2.4844-23.016-2.4844-35.016v-23.484c0-53.25 16.5-104.48 47.484-147.98l102.52-108.23h494.26l102.23 108.23c11.016 15.516 20.25 31.734 27.516 48.984 6.75 15.516 11.766 31.734 15 48.516 3.5156 16.5 5.25 33.516 5.25 50.484z"/>
 <path d="m237.28 932.81c-36.047 0-72.938-2.8125-110.86-9.1406l8.2031-49.312c175.64 29.344 325.55-21.609 484.22-75.516 107.81-36.656 219.32-74.484 340.22-85.547l4.5469 49.781c-114.98 10.453-223.6 47.391-328.64 83.062-125.76 42.75-255 86.672-397.69 86.672z"/>
 <path d="m1082.8 840.84c-13.781 0-24.984-11.203-24.984-24.984v-212.02c0-23.672-19.172-42.844-42.844-42.844h-217.74v-50.016h217.74c51.281 0 92.812 41.531 92.812 92.812v212.02c0.046875 13.828-11.156 25.031-24.984 25.031z"/>
 <path d="m140.48 393.74v27.75c0 60 37.734 111 90.984 130.74 15 5.7656 31.5 8.7656 48.516 8.7656h542.26v-167.26zm139.5 117.23c-41.766 0-76.734-28.5-86.766-67.266h579v67.266z"/>
 <path d="m739.97 125.02 31.266-72.234-534.28-0.046875 147.24 341.02 21.75 50.016 14.766 34.266h166.74l14.766-34.266 21.75-50.016 19.5-45.516h68.016c62.484 0 113.25-51 113.25-113.48 0-52.734-36-97.266-84.75-109.73zm-170.48 268.74-14.766 34.266h-101.25l-14.766-34.266-125.76-291h381.98l-8.0156 18.516-21.516 50.016-54.75 126.98-21.516 50.016zm141.98-95.484h-46.266l54.516-126.52c30.984 3.9844 54.984 30.75 54.984 63 0 35.016-28.219 63.516-63.234 63.516z"/>
</svg>
