<?xml version="1.0" encoding="UTF-8"?>
<svg width="1200pt" height="1200pt" version="1.1" viewBox="0 0 1200 1200" xmlns="http://www.w3.org/2000/svg">
 <path d="m543.74 18.75c-17.391 0-34.078 6.8906-46.406 19.219-12.281 12.328-19.219 29.016-19.219 46.406 0.046874 29.016 19.078 54.562 46.875 62.859v21.516h-185.16c-23.062 0-42.328 16.078-47.625 37.5h232.78v618.74h-159.37v56.25h356.26v-56.25h-159.37v-618.74h232.82c-5.2969-21.422-24.609-37.5-47.672-37.5h-185.16v-21.516c27.797-8.2969 46.875-33.844 46.875-62.859 0-17.391-6.8906-34.078-19.219-46.406-12.281-12.328-28.969-19.219-46.406-19.219zm-300 206.26c-7.7344 0-12.141 8.8125-7.5 15l54.375 72.469v670.31c-12.188 4.3594-20.953 16.078-20.953 29.719v137.16c0 17.344 14.25 31.594 31.594 31.594h482.76c17.344 0 31.594-14.25 31.594-31.594v-137.16c0-12.797-7.7344-23.859-18.75-28.828v-131.16h75.562c51.188 0 93.188-41.953 93.188-93.188v-412.5c0-51.188-41.953-93.188-93.188-93.188l-75.562 0.046875v-28.688h-215.63v581.26h150c5.2031 0 9.375 4.2188 9.375 9.375v75c0 5.1562-4.1719 9.375-9.375 9.375h-375c-5.1562 0-9.375-4.2188-9.375-9.375v-75c0-5.1562 4.2188-9.375 9.375-9.375h150v-581.26zm553.13 84.938h75.562c21.047 0 36.938 15.844 36.938 36.938v412.5c0 21.047-15.844 36.938-36.938 36.938h-75.562z"/>
</svg>
