<?xml version="1.0" encoding="UTF-8"?>
<svg width="1200pt" height="1200pt" version="1.1" viewBox="0 0 1200 1200" xmlns="http://www.w3.org/2000/svg">
 <path d="m140.9 880.97c-31.172 13.359-55.5 28.453-71.812 44.109-21.703 20.766-31.594 43.641-31.594 66.516 0 32.484 21.938 66.844 69.141 93.844 78.516 44.859 236.29 77.062 418.36 77.062s339.84-32.203 418.36-77.062c47.203-27 69.141-61.359 69.141-93.844 0-23.438-10.453-47.016-33.328-68.203-16.266-15.047-39.984-29.484-70.078-42.375-64.734 91.266-171.19 150.24-290.63 150.24h-186.94c-119.44 0-225.89-58.969-290.63-150.28zm794.63-173.26c-16.688 161.9-153.19 286.03-317.06 286.03h-186.94c-167.39 0-306.28-129.52-317.95-296.53-9.8438-141.37-19.781-283.4-19.781-283.4-0.32812-5.1562 1.4531-10.312 4.9688-14.109 3.5625-3.7969 8.5312-5.9531 13.734-5.9531h825c5.2031 0 10.172 2.1562 13.734 5.9531 3.5156 3.7969 5.2969 8.9531 4.9688 14.109l-5.7188 82.031c26.484-23.859 61.359-38.344 99.516-38.344 82.594 0 150 67.969 150 152.06s-67.406 152.02-150 152.02c-45.844 0-86.953-20.859-114.47-53.859zm114.47-175.22c41.578 0 75 34.734 75 77.062s-33.422 77.016-75 77.016-75-34.688-75-77.016 33.422-77.062 75-77.062zm-725.29-472.92-0.60938-0.98438-12.938 27.188c-20.344 42.75-12.375 94.453 19.828 128.26h0.046875c10.406 10.969 13.031 27.75 6.375 41.625l-12.938 27.188 0.75 1.2656c-3 2.8594-4.6875 9.1875-4.6875 15.891 0 20.719 15.984 37.5 35.719 37.5 0 0 21 2.2969 32.156-21.094l12.938-27.188c20.344-42.75 12.375-94.406-19.828-128.26h-0.046875c-10.406-10.969-13.031-27.75-6.375-41.625l12.938-27.188c25.875-37.547-27.328-83.062-63.328-32.578zm375 0-0.60938-0.98438-12.938 27.188c-20.344 42.75-12.375 94.453 19.828 128.26h0.046875c10.406 10.969 13.031 27.75 6.375 41.625l-12.938 27.188 0.75 1.2656c-3 2.8594-4.6875 9.1875-4.6875 15.891 0 20.719 15.984 37.5 35.719 37.5 0 0 21 2.2969 32.156-21.094l12.938-27.188c20.344-42.75 12.375-94.406-19.828-128.26h-0.046875c-10.406-10.969-13.031-27.75-6.375-41.625l12.938-27.188c25.875-37.547-27.328-83.062-63.328-32.578zm-186.89-36.844s-8.625 22.453-17.156 44.578c-15.141 39.422-8.8594 84.984 16.125 117.52l12.797 16.641c8.3906 10.875 10.453 26.062 5.3906 39.188-8.5312 22.125-17.156 44.578-17.156 44.578-7.3125 19.031 0.60938 41.109 17.672 49.219 17.109 8.2031 36.891-0.65625 44.203-19.688 0 0 8.625-22.406 17.156-44.578 15.141-39.422 8.8594-84.984-16.125-117.52l-12.797-16.641c-8.3906-10.828-10.453-26.062-5.3906-39.188 8.5312-22.125 17.156-44.578 17.156-44.578 7.3125-18.984-0.60937-41.109-17.672-49.219-17.109-8.1562-36.891 0.65625-44.203 19.688z" fill-rule="evenodd"/>
</svg>
