<?xml version="1.0" encoding="UTF-8"?>
<svg width="1200pt" height="1200pt" version="1.1" viewBox="0 0 1200 1200" xmlns="http://www.w3.org/2000/svg">
 <path d="m807.19 1050-123.32-77.062c-51.328-32.062-116.39-32.062-167.72 0l-123.32 77.062h-17.812c-13.781 0-24.984 11.203-24.984 24.984 0 13.828 11.203 25.031 24.984 25.031h450c13.781 0 24.984-11.203 24.984-25.031 0-13.781-11.203-24.984-24.984-24.984z" fill-rule="evenodd"/>
 <path d="m849.98 800.06v49.125c0 13.266-5.25 25.969-14.625 35.344s-22.125 14.672-35.344 14.672h-400.03c-13.219 0-25.969-5.2969-35.344-14.672s-14.625-22.078-14.625-35.344v-49.125zm-122.29-275.06c-17.016 42.562-26.344 87.938-27.516 133.97 20.578 9.4688 55.547 25.5 55.453 25.5 34.875 11.344 64.547 34.641 84 65.578h-479.26c19.406-30.938 49.031-54.234 83.812-65.578l55.688-25.5c-1.1719-46.031-10.547-91.406-27.562-133.97h102.75l0.046875 25.031c0.046875 13.828 11.25 24.984 25.078 24.984 13.781-0.046875 24.984-11.297 24.938-25.078l-0.09375-24.938zm-279.47-50.016c-29.859-55.641-48.234-111.47-48.234-150 0-121.92 74.953-225 200.02-225s200.02 103.08 200.02 225c0 38.531-18.375 94.359-48.234 150zm100.92-150c0-36.984 12.891-75.844 50.859-75.844 13.781 0 24.984-11.203 24.984-25.031 0-13.781-11.203-24.984-24.984-24.984-66.984 0-100.88 60.516-100.88 125.86 0 13.828 11.203 25.031 24.984 25.031 13.828 0 25.031-11.203 25.031-25.031z" fill-rule="evenodd"/>
</svg>
