<?xml version="1.0" encoding="UTF-8"?>
<svg width="1200pt" height="1200pt" version="1.1" viewBox="0 0 1200 1200" xmlns="http://www.w3.org/2000/svg">
 <path d="m852 959.95c-59.672-0.046875-108.05-48.422-108-108.14 0-14.766 3.0469-29.344 8.9062-42.891l144.32-331.82c71.203-164.16-4.125-354.98-168.28-426.19-164.16-71.203-354.98 4.125-426.19 168.28-35.672 82.266-35.672 175.64 0 257.86l144.32 331.87c23.719 54.75-1.4062 118.41-56.203 142.13-13.547 5.8594-28.125 8.9062-42.891 8.9062-99.375 0.09375-179.9 80.625-180 180 0 19.875 16.125 36 36 36h792c19.875 0 36-16.125 36-36-0.09375-99.375-80.625-179.9-180-180zm-122.26-828c-39.188 23.578-84.047 36-129.74 36s-90.562-12.422-129.74-36c79.828-48.047 179.68-48.047 259.5 0zm-360.98 316.4c-39.141-90.281-22.125-195.05 43.5-268.36 54.797 39 120.42 59.953 187.69 59.953 67.266 0.046875 132.89-20.906 187.69-59.953 65.625 73.266 82.641 178.08 43.5 268.36l-128.48 295.6h-205.31zm155.63 367.6h151.22c-10.266 50.438 1.5938 102.84 32.484 144h-216.19c30.938-41.156 42.75-93.562 32.484-144zm-278.21 288c15.281-43.125 56.062-71.953 101.81-72h504c45.75 0.046875 86.531 28.875 101.81 72z"/>
</svg>
