<?xml version="1.0" encoding="UTF-8"?>
<svg width="1200pt" height="1200pt" version="1.1" viewBox="0 0 1200 1200" xmlns="http://www.w3.org/2000/svg">
 <path d="m142.78 849.71c-32.906 15.703-58.5 33.516-75.469 52.172-20.156 22.078-29.812 46.078-29.812 70.406 0 35.672 21.891 71.859 67.219 101.53 78.844 51.609 237.32 88.688 420.28 88.688 182.95 0 341.44-37.078 420.28-88.688 45.328-29.672 67.219-65.859 67.219-101.53 0-24.984-10.219-49.688-31.547-72.328-16.922-17.906-41.859-35.062-73.734-50.25 22.688-37.359 38.297-79.594 45-124.87 26.297 22.922 60.516 36.75 97.781 36.75 82.594 0 150-67.922 150-152.02s-67.406-152.06-150-152.06c-29.25 0-56.531 8.5312-79.688 23.25l4.5938-65.625c0.75-10.406-2.9062-20.578-9.9844-28.219-7.0781-7.5938-17.016-11.906-27.422-11.906h-825c-10.406 0-20.344 4.3125-27.422 11.906-7.0781 7.6406-10.734 17.812-9.9844 28.219 0 0 9.9375 142.03 19.781 283.4 3.8438 55.266 20.906 106.64 47.906 151.18zm717.24 60.984c-61.5 63-147.24 101.81-241.55 101.81h-186.94c-94.312 0-180.05-38.812-241.55-101.81-24.703 10.266-44.953 21.656-59.578 34.266-10.219 8.8594-17.906 17.203-17.906 27.328 0 7.9219 5.2031 14.812 12.234 21.938 12.234 12.562 30.422 23.812 52.922 34.172 78.328 36.281 204.84 59.109 347.34 59.109s269.02-22.828 347.34-59.109c22.5-10.359 40.688-21.609 52.922-34.172 7.0312-7.125 12.234-14.016 12.234-21.938 0-10.641-8.3438-19.312-19.406-28.641-14.531-12.047-34.219-23.062-58.078-32.953zm-707.29-460.69h744.56l-16.969 243.28c-9.6562 137.53-124.03 244.22-261.84 244.22h-186.94c-137.81 0-252.19-106.69-261.84-244.22zm897.28 82.5c41.578 0 75 34.734 75 77.062s-33.422 77.016-75 77.016-75-34.688-75-77.016 33.422-77.062 75-77.062zm-725.29-472.92-0.60938-0.98438-12.938 27.188c-20.344 42.75-12.375 94.453 19.828 128.26h0.046875c10.406 10.969 13.031 27.75 6.375 41.625l-12.938 27.188 0.75 1.2656c-3 2.8594-4.6875 9.1875-4.6875 15.891 0 20.719 15.984 37.5 35.719 37.5 0 0 21 2.2969 32.156-21.094l12.938-27.188c20.344-42.75 12.375-94.453-19.828-128.26h-0.046875c-10.406-10.969-13.031-27.75-6.375-41.625l12.938-27.188c25.875-37.594-27.328-83.062-63.328-32.578zm375 0-0.60938-0.98438-12.938 27.188c-20.344 42.75-12.375 94.453 19.828 128.26h0.046875c10.406 10.969 13.031 27.75 6.375 41.625l-12.938 27.188 0.75 1.2656c-3 2.8594-4.6875 9.1875-4.6875 15.891 0 20.719 15.984 37.5 35.719 37.5 0 0 21 2.2969 32.156-21.094l12.938-27.188c20.344-42.75 12.375-94.453-19.828-128.26h-0.046875c-10.406-10.969-13.031-27.75-6.375-41.625l12.938-27.188c25.875-37.594-27.328-83.062-63.328-32.578zm-186.89-36.844s-8.625 22.406-17.156 44.578c-15.141 39.422-8.8594 84.984 16.125 117.52l12.797 16.641c8.3906 10.875 10.453 26.062 5.3906 39.188-8.5312 22.125-17.156 44.578-17.156 44.578-7.3125 18.984 0.60938 41.109 17.672 49.219 17.109 8.2031 36.891-0.65625 44.203-19.688 0 0 8.625-22.406 17.156-44.578 15.141-39.422 8.8594-84.984-16.125-117.52l-12.797-16.641c-8.3906-10.875-10.453-26.062-5.3906-39.188 8.5312-22.125 17.156-44.578 17.156-44.578 7.3125-18.984-0.60937-41.109-17.672-49.219-17.109-8.2031-36.891 0.65625-44.203 19.688z" fill-rule="evenodd"/>
</svg>
