<?xml version="1.0" encoding="UTF-8"?>
<svg width="1200pt" height="1200pt" version="1.1" viewBox="0 0 1200 1200" xmlns="http://www.w3.org/2000/svg">
 <path d="m266.16 467.68c-41.062 13.641-82.172 29.766-123.24 48.422 0 0.046875-0.046875 0.046875-0.09375 0.046875-13.781 6.3281-23.953 18.562-27.609 33.328-3.7031 14.719-0.51562 30.328 8.7188 42.375 68.297 89.625 303.32 397.6 365.16 478.64 14.203 18.609 36.234 29.531 59.625 29.531h102.56c23.391 0 45.422-10.922 59.625-29.531 61.828-81.047 296.81-388.97 365.21-478.6 9.2344-12.094 12.422-27.703 8.7188-42.469-3.6562-14.766-13.875-27-27.656-33.328-0.046876 0-0.09375-0.046875-0.09375-0.046875-41.484-18.797-82.969-35.062-124.4-48.703l143.44-187.92c9.2344-12.141 12.422-27.75 8.7188-42.516-3.6562-14.719-13.875-27-27.656-33.328-0.046875 0-0.09375-0.046875-0.09375-0.046875-304.78-138.1-609.52-138.32-914.29 0.14062 0 0-0.046875 0-0.046875 0.046875-13.781 6.2812-23.953 18.516-27.656 33.188-3.6562 14.672-0.51562 30.234 8.625 42.328 34.078 45.141 106.5 140.95 142.45 188.44zm617.29 36.75c-239.9-70.688-479.81-51.797-719.72 57.141 68.391 89.719 303.28 397.6 365.11 478.6 4.7344 6.2344 12.094 9.8438 19.875 9.8438h102.56c7.7812 0 15.141-3.6094 19.875-9.8438l365.21-478.6c-50.625-22.922-101.25-41.906-151.82-56.859-0.32812-0.09375-0.70312-0.1875-1.0781-0.28125zm-1.7812-52.641 154.69-202.74c-290.95-131.81-581.81-132.1-872.72 0.09375 38.062 50.438 124.03 164.06 153.42 202.97 188.21-52.875 376.4-52.922 564.61-0.32812z" fill-rule="evenodd"/>
 <path d="m818.9 277.31c30.328 7.6406 60.703 16.828 91.031 27.656 12.984 4.5938 27.281-2.2031 31.922-15.188s-2.1562-27.328-15.188-31.922c-31.828-11.344-63.703-21-95.578-29.016-13.406-3.375-26.953 4.7344-30.328 18.141-3.375 13.359 4.7812 26.953 18.141 30.328zm-340.45-19.125c81-11.297 162.05-11.25 243.1 0.09375 13.641 1.9219 26.297-7.6406 28.219-21.328 1.875-13.641-7.6406-26.297-21.281-28.219-85.641-11.953-171.28-12-256.97-0.046875-13.641 1.9219-23.203 14.578-21.281 28.219 1.875 13.641 14.578 23.203 28.219 21.281z" fill-rule="evenodd"/>
 <path d="m315.24 628.6 31.5-19.969c11.625-7.4062 15.094-22.875 7.6875-34.5-7.4062-11.672-22.828-15.094-34.5-7.7344l-31.5 20.016c-11.625 7.4062-15.094 22.828-7.6875 34.5 7.3594 11.625 22.828 15.094 34.5 7.6875z" fill-rule="evenodd"/>
 <path d="m372.61 708.37 31.547-19.969c11.625-7.4062 15.094-22.875 7.6875-34.547-7.4062-11.625-22.828-15.094-34.5-7.6875l-31.5 20.016c-11.672 7.3594-15.094 22.828-7.7344 34.5 7.4062 11.625 22.875 15.094 34.5 7.6875z" fill-rule="evenodd"/>
 <path d="m433.82 793.4 31.5-19.969c11.625-7.4062 15.094-22.875 7.6875-34.547-7.3594-11.625-22.828-15.094-34.5-7.6875l-31.5 20.016c-11.625 7.3594-15.094 22.828-7.6875 34.5 7.4062 11.625 22.828 15.094 34.5 7.6875z" fill-rule="evenodd"/>
 <path d="m495 878.44 31.5-19.969c11.672-7.4062 15.141-22.875 7.7344-34.547-7.4062-11.625-22.875-15.094-34.547-7.6875l-31.5 20.016c-11.625 7.3594-15.094 22.828-7.6875 34.5 7.4062 11.625 22.828 15.094 34.5 7.6875z" fill-rule="evenodd"/>
 <path d="m556.22 963.47 31.5-19.969c11.625-7.4062 15.094-22.875 7.6875-34.547-7.4062-11.625-22.828-15.094-34.5-7.6875l-31.5 19.969c-11.625 7.4062-15.094 22.875-7.6875 34.547 7.3594 11.625 22.828 15.094 34.5 7.6875z" fill-rule="evenodd"/>
</svg>
