<?xml version="1.0" encoding="UTF-8"?>
<svg width="1200pt" height="1200pt" version="1.1" viewBox="0 0 1200 1200" xmlns="http://www.w3.org/2000/svg">
 <path d="m1014.9 510.98h-192.71v-117.23h-198.24l19.5-45.516h68.016c62.484 0 113.25-51 113.25-113.48 0-52.734-36-97.266-84.75-109.73l31.266-72.234-534.28-0.046875 147.24 341.02h-243.74v27.75c0 60 37.734 111 90.984 130.74l-79.266 83.766-2.0156 2.4844c-38.016 52.5-57.984 114.23-57.984 178.74v23.484c0 168.98 137.48 306.52 306.24 306.52l281.58 0.046876c168.98 0 306.52-137.48 306.52-306.52v-23.484c0-64.5-20.25-126.24-57.984-178.74l-73.266-77.484h159.66c23.672 0 42.844 19.172 42.844 42.844v212.02c0 13.781 11.203 24.984 24.984 24.984 13.828 0 24.984-11.203 24.984-24.984v-212.02c0-51.328-41.531-92.906-92.812-92.906zm-295.18-339.24c30.984 3.9844 54.984 30.75 54.984 63 0 35.016-28.266 63.516-63.234 63.516h-46.266zm-526.5 272.02h212.76l14.766 34.266h166.74l14.766-34.266h170.02v67.266l-492.32-0.046875c-41.719 0-76.734-28.5-86.719-67.219zm695.48 225.47c11.016 15.516 20.25 31.734 27.516 48.984-104.48 15-202.26 48.234-297.24 80.484-155.76 53.016-303 102.98-474.24 77.016-1.7344-11.484-2.4844-23.016-2.4844-35.016v-23.484c0-53.25 16.5-104.48 47.484-147.98l102.52-108.23h494.26z"/>
</svg>
