<?xml version="1.0" encoding="UTF-8"?>
<svg width="1200pt" height="1200pt" version="1.1" viewBox="0 0 1200 1200" xmlns="http://www.w3.org/2000/svg">
 <path d="m285.48 714.84h0.96094c30.84-4.3203 79.559-50.039 112.08-98.762-26.52 70.32-75.719 150.72-101.88 161.88-3.5156 1.5859-5.1172 5.6914-3.6016 9.2383 0.97266 2.9883 3.8242 4.9531 6.9609 4.8008 0.91406 0.16797 1.8477 0.16797 2.7617 0 48.598-22.32 124.08-182.4 129.24-251.4 4.1172-0.89844 7.7773-3.2383 10.32-6.6016l3-4.0781c1.8945 0.38281 3.8242 0.58203 5.7578 0.59766 6.8828 0 13.609-2.0469 19.32-5.8789-1.9453 7.1133-4.4727 14.059-7.5586 20.758l-26.641 58.441c-5.1133 11.141-4.2109 24.117 2.4023 34.441 2.207 3.4609 5.0117 6.5078 8.2773 9l-130.44 284.64c-15.469 33.688-12.703 72.938 7.3359 104.13 20.039 31.188 54.59 50.016 91.664 49.949h396c37.043 0.003906 71.547-18.84 91.574-50.004 20.027-31.168 22.824-70.383 7.4258-104.07l-130.44-284.76c3.3555-2.3789 6.2109-5.3984 8.3984-8.8789 6.6133-10.324 7.5156-23.301 2.4023-34.441l-24.602-53.879c-6.4062-13.832-10.461-28.637-12-43.801 5.7656 0 10.441-4.6758 10.441-10.441s-4.6758-10.438-10.441-10.438c1.2695-21.125 7.4336-41.668 18-60l19.801-33.602c2.0039-3.4453 3.0586-7.3555 3.0586-11.34s-1.0547-7.8945-3.0586-11.34c-2.8125-5.0195-7.457-8.7617-12.961-10.441l126-219c1.5-2.5234 2.293-5.4023 2.293-8.3398 0-2.9336-0.79297-5.8164-2.293-8.3398-3.75-5.7188-10.203-9.082-17.039-8.8789h-543.96c-2.3516 0-4.6953 0.32422-6.9609 0.96094l-31.797 5.0391c-7.4414 1.6797-13.762 6.5547-17.281 13.32-3.1133 6.7383-3.1133 14.5 0 21.238 1.0469 2.2578 2.2109 4.4609 3.4805 6.6016l156 200.52c-4.6836 3.2422-7.9727 8.1289-9.2188 13.688-1.2461 5.5586-0.35156 11.383 2.5 16.312l15.84 28.32c8.7773 15.137 14.484 31.855 16.797 49.199-6.2305-5.5977-14.301-8.7148-22.68-8.7578-9.2266 0-18.078 3.6641-24.605 10.191-6.5273 6.5273-10.191 15.379-10.191 24.605 0.027344 4.1055 0.80078 8.1719 2.2773 12l-4.0781 5.2812c-2.6562 3.668-3.7812 8.2266-3.1328 12.707 0.65234 4.4805 3.0234 8.5312 6.6133 11.293-4.4414 55.199-91.559 157.44-133.2 163.44h-0.003906c-3.4844 0.63672-5.9336 3.793-5.6875 7.3281 0.24609 3.5352 3.1094 6.3203 6.6484 6.4727zm614.52 222c13.758 30.043 11.246 65.027-6.6602 92.801-17.906 27.77-48.738 44.492-81.781 44.359h-396c-32.977 0.011719-63.695-16.762-81.516-44.512-17.82-27.75-20.293-62.664-6.5625-92.648l129.72-283.92c3.6406 1.1953 7.4492 1.8008 11.281 1.7969h289.92c4.0859 0.10938 8.1562-0.54297 12-1.918zm-599.04-782.4c-0.89453-1.5117-1.6953-3.0742-2.4023-4.6797-1.6133-3.5039-1.6133-7.5391 0-11.043 1.7656-3.5586 4.9453-6.2148 8.7617-7.3203l16.68-2.5195c-0.30469 3.7227 0.53125 7.4492 2.3984 10.68l108 186.24zm100.44 90.602-64.32-111.48-0.003906-0.003906c-0.81641-1.3672-0.81641-3.0703 0-4.4375 0.83984-1.3203 2.1875-2.2344 3.7227-2.5195l3.7188-0.60156h543.48c2.6992-0.31641 5.3711 0.76953 7.0781 2.8789 0.83594 1.4492 0.83594 3.2344 0 4.6797l-129.84 224.04h-298.8zm65.641 169.2-16.559-28.559-0.003906-0.003906c-1.9102-3.3047-1.9102-7.375 0-10.68 1.8828-3.2188 5.2734-5.2539 9-5.3984h312.72c3.7266 0.14453 7.1211 2.1797 9 5.3984 1.9102 3.3047 1.9102 7.375 0 10.68l-19.078 33.121c-11.758 20.277-18.508 43.07-19.68 66.48h-255.72c-0.45703-24.965-7.2266-49.402-19.68-71.043zm18.719 91.922 257.04-0.003906c1.5352 16.922 6 33.449 13.199 48.84l24 53.879c3.3711 7.4297 2.7383 16.062-1.6797 22.922-0.95703 1.4844-2.0859 2.8555-3.3594 4.0781-1.4531 1.4727-3.1094 2.7266-4.9219 3.7227-1.7305 1.0039-3.5859 1.7695-5.5195 2.2773-2.0703 0.58203-4.2109 0.86719-6.3594 0.83984h-290.16c-2.1094 0.027344-4.2109-0.25781-6.2383-0.83984-1.9258-0.48828-3.7773-1.2148-5.5234-2.1602-1.832-1.0625-3.5234-2.3555-5.0391-3.8398-1.2734-1.2227-2.4023-2.5938-3.3594-4.0781-4.3789-6.8789-4.9688-15.512-1.5586-22.922l26.641-58.441v0.003906c6.5547-14.004 10.887-28.945 12.84-44.281z"/>
</svg>
