<?xml version="1.0" encoding="UTF-8"?>
<svg width="1200pt" height="1200pt" version="1.1" viewBox="0 0 1200 1200" xmlns="http://www.w3.org/2000/svg">
 <path d="m549.14 324.98c0-36.984 12.891-75.844 50.859-75.844 13.781 0 24.984-11.25 24.984-25.031s-11.203-24.984-24.984-24.984c-66.984 0-100.88 60.516-100.88 125.86 0 13.828 11.203 25.031 24.984 25.031 13.828 0 25.031-11.203 25.031-25.031z" fill-rule="evenodd"/>
 <path d="m807.19 1050-123.32-77.062c-51.328-32.062-116.39-32.062-167.72 0l-123.32 77.062h-17.812c-13.781 0-24.984 11.203-24.984 24.984 0 13.828 11.203 25.031 24.984 25.031h450c13.781 0 24.984-11.203 24.984-25.031 0-13.781-11.203-24.984-24.984-24.984zm-94.359 0h-225.66l55.453-34.641c35.109-21.938 79.641-21.938 114.75 0z" fill-rule="evenodd"/>
 <path d="m499.87 658.87c-1.5938-62.156-18.141-123.1-48.234-177.61-31.875-57.703-51.656-116.3-51.656-156.28 0-121.92 74.953-225 200.02-225s200.02 103.08 200.02 225c0 39.984-19.781 98.578-51.656 156.28-30.094 54.516-46.594 115.45-48.188 177.66 20.578 9.375 55.453 25.266 55.359 25.219 39.75 12.844 72.75 41.062 91.594 78.375 0.28125 0.51562 0.51562 1.0781 0.75 1.5938 1.9688 4.3125 2.4844 8.1094 2.1094 11.578v73.5c0 13.266-5.25 25.969-14.625 35.344s-22.125 14.672-35.344 14.672h-400.03c-13.219 0-25.969-5.2969-35.344-14.672s-14.625-22.078-14.625-35.344v-75c0-4.1719 1.0312-8.1562 2.8594-11.625 18.797-37.312 51.703-65.531 91.406-78.422zm300.14 190.31h-400.03v-49.969h400.03zm-445.13-89.859c-0.60938 0.79688-1.2188 1.7344-1.875 2.9062 0.5625-0.98437 1.1719-1.9688 1.875-2.9062zm314.72-59.391 66.656 30.375c0.9375 0.42187 1.9219 0.79687 2.9531 1.125 12.375 3.8438 23.812 9.8906 33.844 17.766h-346.18c10.031-7.875 21.469-13.922 33.844-17.812 0.98438-0.32812 1.9688-0.65625 2.9062-1.125l66.75-30.328zm-143.9-174.94c13.969 40.172 22.031 82.266 23.859 124.92h100.88c1.8281-42.656 9.8906-84.75 23.906-124.92h-49.312l0.09375 24.938c0.046875 13.781-11.156 25.031-24.938 25.078-13.828 0-25.031-11.156-25.078-24.984l-0.046875-25.031zm169.55-50.016h-190.5c-2.9531-6-6.0938-12-9.3281-17.906-27.094-48.938-45.422-98.156-45.422-132.1 0-93.375 54.281-174.98 150-174.98s150 81.609 150 174.98c0 33.938-18.328 83.156-45.422 132.1-3.2344 5.9062-6.375 11.859-9.3281 17.906z" fill-rule="evenodd"/>
</svg>
